<svg xmlns="http://www.w3.org/2000/svg" enable-background="new 0 0 64 64" viewBox="0 0 64 64"><path fill="#fff" d="M58.5,43.7C58.5,43.7,58.5,43.7,58.5,43.7C60.1,40.1,61,36.1,61,32c0-4.2-0.9-8.1-2.5-11.7c0,0,0-0.1-0.1-0.1
	C53.9,10.1,43.8,3,32,3c-0.9,0-1.8,0-2.6,0.1c0,0,0,0-0.1,0c-6,0.5-11.5,2.9-15.8,6.6c0,0-0.1,0.1-0.1,0.1C9.6,12.9,6.7,17,4.9,21.6
	c0,0,0,0.1,0,0.1C3.7,24.9,3,28.4,3,32c0,11.6,6.8,21.6,16.6,26.2c0.1,0,0.1,0.1,0.2,0.1C23.5,60,27.7,61,32,61
	c6.7,0,12.9-2.3,17.8-6.1c0.1,0,0.1-0.1,0.2-0.1C53.7,51.8,56.6,48,58.5,43.7z M57.1,41.8C42.4,30.6,28.9,24.2,15.6,21.9
	c0.9-2.4,2-4.7,3.5-6.8l0.3-0.1c17.2-3.5,29.7-1.4,37.4,6.1c1.5,3.3,2.3,7,2.3,10.8C59,35.5,58.3,38.8,57.1,41.8z M15.8,12.9
	c-0.5-0.5-0.7-1.3-0.7-1.9c2.9-2.3,6.2-4.1,9.9-5c-2.7,2.1-5.1,4.6-7.1,7.3C16.9,13.4,16.2,13.3,15.8,12.9z M54.1,16.5
	c-7.9-5.1-19-6.4-33.3-3.8c2.5-3,5.5-5.6,9-7.6C30.5,5,31.3,5,32,5C41.1,5,49.2,9.6,54.1,16.5z M13.3,12.5c0.2,0.6,0.5,1.3,1.1,1.8
	c0.6,0.5,1.3,0.8,2.1,0.9c-1.2,2-2.2,4.1-3,6.4c-2.1-0.3-4.2-0.5-6.3-0.5C8.7,17.9,10.8,15,13.3,12.5z M12.7,24.4
	c-0.6,2.2-0.9,4.4-1,6.7c-3.3-0.5-5.4,0.5-6.7,1.5c0-0.2,0-0.4,0-0.7c0-3.1,0.5-6.1,1.5-8.9c2.1,0.1,4.3,0.2,6.4,0.5
	C12.9,23.9,12.8,24.1,12.7,24.4z M5.2,35.4c0.4-0.7,2.1-2.9,6.4-2.2c0,7,2,14.3,5.9,21.6C10.9,50.5,6.2,43.5,5.2,35.4z M20.8,56.6
	c-4.7-7.6-7.1-15.3-7.2-22.7c1.7,1.1,3.8,3.4,6.1,6c6,6.7,13.9,15.6,25.2,15.6c0.1,0,0.3,0,0.4,0C41.4,57.7,36.9,59,32,59
	C28,59,24.2,58.1,20.8,56.6z M48.9,53.1c-12.5,2.4-21.2-7.4-27.6-14.5c-3-3.3-5.4-6-7.6-6.9c0.1-2.3,0.4-4.5,1-6.7
	c0.1-0.4,0.2-0.7,0.3-1c13.3,2.1,26.6,8.6,41.4,19.8C54.6,47.4,52,50.6,48.9,53.1z"/></svg>